<svg xmlns="http://www.w3.org/2000/svg" version="1.1" xmlns:xlink="http://www.w3.org/1999/xlink" xmlns:svgjs="http://svgjs.dev/svgjs" width="2000" height="444" viewBox="0 0 2000 444"><g transform="matrix(1,0,0,1,-1.2121212121213603,0.9978649808235787)"><svg viewBox="0 0 396 88" data-background-color="#ffffff" preserveAspectRatio="xMidYMid meet" height="444" width="2000" xmlns="http://www.w3.org/2000/svg" xmlns:xlink="http://www.w3.org/1999/xlink"><g id="tight-bounds" transform="matrix(1,0,0,1,0.24000000000003752,-0.1977750412443129)"><svg viewBox="0 0 395.5199999999999 88.39555008248861" height="88.39555008248861" width="395.5199999999999"><g><svg viewBox="0 0 524.8815807341032 117.30682660082225" height="88.39555008248861" width="395.5199999999999"><g transform="matrix(1,0,0,1,129.36158073410323,33.12190197930908)"><svg viewBox="0 0 395.52 51.06302264220409" height="51.06302264220409" width="395.52"><g id="textblocktransform"><svg viewBox="0 0 395.52 51.06302264220409" height="51.06302264220409" width="395.52" id="textblock"><g><svg viewBox="0 0 395.52 51.06302264220409" height="51.06302264220409" width="395.52"><g transform="matrix(1,0,0,1,0,0)"><svg width="395.52" viewBox="3.59 -36.86 289.34000000000003 37.36" height="51.06302264220409" data-palette-color="#000000"><path d="M10.17 0L3.59 0 3.59-36.36 17.22-36.36Q21.41-36.36 24.26-34.8 27.11-33.24 28.58-30.51 30.04-27.79 30.04-24.33L30.04-24.33Q30.04-20.83 28.57-18.11 27.1-15.39 24.22-13.84 21.34-12.29 17.13-12.29L17.13-12.29 8.1-12.29 8.1-17.7 16.25-17.7Q18.7-17.7 20.26-18.55 21.82-19.41 22.58-20.9 23.33-22.39 23.33-24.33L23.33-24.33Q23.33-26.26 22.58-27.73 21.82-29.21 20.25-30.03 18.68-30.86 16.21-30.86L16.21-30.86 10.17-30.86 10.17 0ZM42.34 0L35.76 0 35.76-36.36 49.39-36.36Q53.58-36.36 56.43-34.91 59.28-33.45 60.75-30.83 62.21-28.21 62.21-24.73L62.21-24.73Q62.21-21.24 60.73-18.67 59.25-16.1 56.37-14.71 53.5-13.32 49.31-13.32L49.31-13.32 39.59-13.32 39.59-18.79 48.42-18.79Q50.87-18.79 52.43-19.47 53.99-20.15 54.75-21.48 55.5-22.8 55.5-24.73L55.5-24.73Q55.5-26.67 54.74-28.05 53.97-29.42 52.41-30.14 50.85-30.86 48.38-30.86L48.38-30.86 42.34-30.86 42.34 0ZM47.35-16.48L54.54-16.48 63.55 0 56.19 0 47.35-16.48ZM100.78-18.18L100.78-18.18Q100.78-12.3 98.58-8.12 96.39-3.94 92.62-1.72 88.84 0.5 84.07 0.5L84.07 0.5Q79.29 0.5 75.52-1.73 71.75-3.96 69.55-8.14 67.36-12.32 67.36-18.18L67.36-18.18Q67.36-24.06 69.55-28.24 71.75-32.42 75.52-34.64 79.29-36.86 84.07-36.86L84.07-36.86Q88.84-36.86 92.62-34.64 96.39-32.42 98.58-28.24 100.78-24.06 100.78-18.18ZM94.15-18.18L94.15-18.18Q94.15-22.32 92.87-25.17 91.58-28.02 89.31-29.48 87.03-30.95 84.07-30.95L84.07-30.95Q81.1-30.95 78.83-29.48 76.56-28.02 75.27-25.17 73.98-22.32 73.98-18.18L73.98-18.18Q73.98-14.04 75.27-11.19 76.56-8.35 78.83-6.88 81.1-5.42 84.07-5.42L84.07-5.42Q87.03-5.42 89.31-6.88 91.58-8.35 92.87-11.19 94.15-14.04 94.15-18.18ZM107.02 0L107.02-36.36 115.08-36.36 125.88-10.01 126.31-10.01 137.1-36.36 145.16-36.36 145.16 0 138.84 0 138.84-24.98 138.5-24.98 128.45-0.11 123.73-0.11 113.68-25.04 113.34-25.04 113.34 0 107.02 0ZM158.92 0L152.33 0 152.33-36.36 165.97-36.36Q170.16-36.36 173.01-34.8 175.86-33.24 177.32-30.51 178.79-27.79 178.79-24.33L178.79-24.33Q178.79-20.83 177.32-18.11 175.84-15.39 172.97-13.84 170.09-12.29 165.88-12.29L165.88-12.29 156.84-12.29 156.84-17.7 164.99-17.7Q167.44-17.7 169.01-18.55 170.57-19.41 171.32-20.9 172.08-22.39 172.08-24.33L172.08-24.33Q172.08-26.26 171.32-27.73 170.57-29.21 169-30.03 167.43-30.86 164.96-30.86L164.96-30.86 158.92-30.86 158.92 0ZM194.15-30.84L182.91-30.84 182.91-36.36 211.92-36.36 211.92-30.84 200.68-30.84 200.68 0 194.15 0 194.15-30.84ZM224.08 0L217.49 0 217.49-36.36 231.13-36.36Q235.32-36.36 238.17-34.8 241.02-33.24 242.48-30.51 243.95-27.79 243.95-24.33L243.95-24.33Q243.95-20.83 242.47-18.11 241-15.39 238.12-13.84 235.25-12.29 231.04-12.29L231.04-12.29 222-12.29 222-17.7 230.15-17.7Q232.6-17.7 234.16-18.55 235.73-19.41 236.48-20.9 237.24-22.39 237.24-24.33L237.24-24.33Q237.24-26.26 236.48-27.73 235.73-29.21 234.16-30.03 232.58-30.86 230.12-30.86L230.12-30.86 224.08-30.86 224.08 0ZM249.66-36.36L256.25-36.36 256.25 0 249.66 0 249.66-36.36ZM261.36-36.36L268.91-36.36 276.92-23.05 277.2-23.05 285.24-36.36 292.75-36.36 281.55-18.18 292.93 0 285.3 0 277.2-13.23 276.92-13.23 268.82 0 261.22 0 272.71-18.18 261.36-36.36Z" opacity="1" transform="matrix(1,0,0,1,0,0)" fill="#000000" class="undefined-text-0" data-fill-palette-color="primary" id="text-0"></path></svg></g></svg></g></svg></g></svg></g><g><svg viewBox="0 0 117.30682660082225 117.30682660082225" height="117.30682660082225" width="117.30682660082225"><g><svg></svg></g><g id="icon-0"><svg viewBox="0 0 117.30682660082225 117.30682660082225" height="117.30682660082225" width="117.30682660082225"><g><rect width="106.662318261118" height="106.662318261118" x="5.322254169852123" y="5.322254169852123" fill="#000000" data-fill-palette-color="accent"></rect><rect width="106.662318261118" height="106.662318261118" x="10.644508339704242" y="2.6645352591003757e-15" fill="#000000" opacity="0.5" data-fill-palette-color="accent"></rect></g><g transform="matrix(1,0,0,1,24.779502292012985,15.206440485291772)"><svg viewBox="0 0 67.74782201679628 86.8939456302387" height="86.8939456302387" width="67.74782201679628"><g><svg xmlns="http://www.w3.org/2000/svg" data-name="Layer 1" viewBox="9 2.5 46 59" x="0" y="0" height="86.8939456302387" width="67.74782201679628" class="icon-n$-0" data-fill-palette-color="background" id="n$-0"><path d="M33.983 21.462l-3.332 4.466a1 1 0 0 1-1.708-0.177L23.7 14.437a1 1 0 0 0-1.844 0.07L16 30.15a1 1 0 0 0 0.937 1.35H41.613a1 1 0 0 0 0.777-1.629l-6.828-8.44A1 1 0 0 0 33.983 21.462Z" fill="#ffffff" data-fill-palette-color="background"></path><circle cx="30.587" cy="16.317" r="2.5" fill="#ffffff" data-fill-palette-color="background"></circle><path d="M27.931 50.522a1.887 1.887 0 0 0-1.121-0.257H25.592v2.16H26.81a3.546 3.546 0 0 0 0.548-0.041 1.338 1.338 0 0 0 0.458-0.154 0.837 0.837 0 0 0 0.32-0.316 1.05 1.05 0 0 0 0.12-0.534 1.406 1.406 0 0 0-0.084-0.534A0.764 0.764 0 0 0 27.931 50.522Z" fill="#ffffff" data-fill-palette-color="background"></path><path d="M54 43.67V17.376l-0.293-0.293L39.417 2.793 39.124 2.5H14a4 4 0 0 0-4 4V40.242a1.991 1.991 0 0 0-1 1.722V56.5a5.006 5.006 0 0 0 5 5H50a5.006 5.006 0 0 0 5-5V45.393A1.991 1.991 0 0 0 54 43.67Zm-24.686 9.7a3.6 3.6 0 0 1-2.357 0.685H25.592v3.5H23.685V48.633h3.287a5.268 5.268 0 0 1 1.261 0.143 2.756 2.756 0 0 1 1.01 0.468 2.217 2.217 0 0 1 0.676 0.847 2.961 2.961 0 0 1 0.245 1.265A2.454 2.454 0 0 1 29.314 53.372Zm3.958 4.189H31.364V48.633h1.908Zm5.748 0l-1.356-2.773-1.356 2.773h-2.1l2.412-4.573-2.268-4.355h2.1l1.212 2.508 1.212-2.508h2.1l-2.268 4.355 2.412 4.573ZM52 43.393H30.086l-2.4-2.746a2 2 0 0 0-1.505-0.683H12V6.5a2 2 0 0 1 2-2H37.71V14.79a4 4 0 0 0 4 4H52Z" fill="#ffffff" data-fill-palette-color="background"></path></svg></g></svg></g></svg></g></svg></g></svg></g><defs></defs></svg><rect width="395.5199999999999" height="88.39555008248861" fill="none" stroke="none" visibility="hidden"></rect></g></svg></g></svg>