<svg xmlns="http://www.w3.org/2000/svg" version="1.1" xmlns:xlink="http://www.w3.org/1999/xlink" xmlns:svgjs="http://svgjs.dev/svgjs" width="128" height="128" viewBox="0 0 128 128"><g transform="matrix(0.8046875,0,0,0.8046875,10.368766987017132,0.21542502057887702)"><svg viewBox="0 0 78 97" data-background-color="#ffffff" preserveAspectRatio="xMidYMid meet" height="159" width="128" xmlns="http://www.w3.org/2000/svg" xmlns:xlink="http://www.w3.org/1999/xlink"><g id="tight-bounds" transform="matrix(1,0,0,1,1.7785932459081693,-0.07841361328605956)"><svg viewBox="0 0 74.44281355932203 95.481" height="95.481" width="74.44281355932203"><g><svg viewBox="0 0 74.44281355932203 95.481" height="95.481" width="74.44281355932203"><g><svg viewBox="0 0 74.44281355932203 95.481" height="95.481" width="74.44281355932203"><g id="textblocktransform"><svg viewBox="0 0 74.44281355932203 95.481" height="95.481" width="74.44281355932203" id="textblock"><g><svg viewBox="0 0 74.44281355932203 95.481" height="95.481" width="74.44281355932203"><g><svg viewBox="0 0 74.44281355932203 95.481" height="95.481" width="74.44281355932203"><g><svg xmlns="http://www.w3.org/2000/svg" data-name="Layer 1" viewBox="9 2.5 46 59" x="0" y="0" height="95.481" width="74.44281355932203" class="icon-icon-0" data-fill-palette-color="accent" id="icon-0"><path d="M33.983 21.462l-3.332 4.466a1 1 0 0 1-1.708-0.177L23.7 14.437a1 1 0 0 0-1.844 0.07L16 30.15a1 1 0 0 0 0.937 1.35H41.613a1 1 0 0 0 0.777-1.629l-6.828-8.44A1 1 0 0 0 33.983 21.462Z" fill="#000000" data-fill-palette-color="accent"></path><circle cx="30.587" cy="16.317" r="2.5" fill="#000000" data-fill-palette-color="accent"></circle><path d="M27.931 50.522a1.887 1.887 0 0 0-1.121-0.257H25.592v2.16H26.81a3.546 3.546 0 0 0 0.548-0.041 1.338 1.338 0 0 0 0.458-0.154 0.837 0.837 0 0 0 0.32-0.316 1.05 1.05 0 0 0 0.12-0.534 1.406 1.406 0 0 0-0.084-0.534A0.764 0.764 0 0 0 27.931 50.522Z" fill="#000000" data-fill-palette-color="accent"></path><path d="M54 43.67V17.376l-0.293-0.293L39.417 2.793 39.124 2.5H14a4 4 0 0 0-4 4V40.242a1.991 1.991 0 0 0-1 1.722V56.5a5.006 5.006 0 0 0 5 5H50a5.006 5.006 0 0 0 5-5V45.393A1.991 1.991 0 0 0 54 43.67Zm-24.686 9.7a3.6 3.6 0 0 1-2.357 0.685H25.592v3.5H23.685V48.633h3.287a5.268 5.268 0 0 1 1.261 0.143 2.756 2.756 0 0 1 1.01 0.468 2.217 2.217 0 0 1 0.676 0.847 2.961 2.961 0 0 1 0.245 1.265A2.454 2.454 0 0 1 29.314 53.372Zm3.958 4.189H31.364V48.633h1.908Zm5.748 0l-1.356-2.773-1.356 2.773h-2.1l2.412-4.573-2.268-4.355h2.1l1.212 2.508 1.212-2.508h2.1l-2.268 4.355 2.412 4.573ZM52 43.393H30.086l-2.4-2.746a2 2 0 0 0-1.505-0.683H12V6.5a2 2 0 0 1 2-2H37.71V14.79a4 4 0 0 0 4 4H52Z" fill="#000000" data-fill-palette-color="accent"></path></svg></g></svg></g></svg></g></svg></g></svg></g></svg></g><defs></defs></svg><rect width="74.44281355932203" height="95.481" fill="none" stroke="none" visibility="hidden"></rect></g></svg></g></svg>